<svg id="Layer_1" data-name="Layer 1" xmlns="http://www.w3.org/2000/svg" viewBox="0 0 86.56 71.62"><defs><style>.cls-1,.cls-2{fill:#fff;stroke:#000;stroke-linecap:round;stroke-miterlimit:10;}.cls-1{stroke-width:2.66px;}.cls-2{stroke-width:2.24px;}</style></defs><title>Artboard 29</title><rect class="cls-1" x="21.92" y="14.13" width="47.67" height="54.49" rx="1.75" ry="1.75"/><line class="cls-2" x1="28.31" y1="21.29" x2="61.5" y2="21.29"/><line class="cls-2" x1="28.31" y1="27.29" x2="61.5" y2="27.29"/><line class="cls-2" x1="28.5" y1="33.38" x2="61.7" y2="33.38"/><line class="cls-2" x1="28.31" y1="39.62" x2="61.5" y2="39.62"/><line class="cls-2" x1="28.5" y1="45.75" x2="61.69" y2="45.75"/><path d="M45.11,51.24a5.08,5.08,0,1,0,5.06,5.07A5.07,5.07,0,0,0,45.11,51.24Zm0,8A2.92,2.92,0,1,1,48,56.31,2.91,2.91,0,0,1,45.11,59.23Z"/><path d="M42.59,52.65l-.69,1.2a.59.59,0,0,1-.8.21l-1.57-.91a.58.58,0,0,1-.21-.8L40,51.16a.59.59,0,0,1,.8-.22l1.57.91A.59.59,0,0,1,42.59,52.65Z"/><path d="M51.16,52.08l-.77-1.14a.58.58,0,0,0-.81-.15l-1.5,1a.58.58,0,0,0-.16.81l.78,1.14a.58.58,0,0,0,.81.16l1.5-1A.59.59,0,0,0,51.16,52.08Z"/><rect x="43.84" y="49.14" width="2.54" height="2.99" rx="0.58" ry="0.58"/><path d="M42.85,60l-1-1a.59.59,0,0,0-.83,0l-1.28,1.29a.59.59,0,0,0,0,.83l1,1a.59.59,0,0,0,.83,0l1.28-1.29A.59.59,0,0,0,42.85,60Z"/><path d="M47.85,60l.9-1a.58.58,0,0,1,.82-.06L51,60.12a.58.58,0,0,1,.06.82L50.11,62a.57.57,0,0,1-.82.06l-1.38-1.18A.6.6,0,0,1,47.85,60Z"/><rect x="38.54" y="55.07" width="2.55" height="2.98" rx="0.58" ry="0.58" transform="translate(96.38 16.74) rotate(90)"/><rect x="44.08" y="60.37" width="2.54" height="2.99" rx="0.58" ry="0.58"/><rect x="49.76" y="55.07" width="2.55" height="2.98" rx="0.58" ry="0.58" transform="translate(107.6 5.53) rotate(90)"/></svg>