<svg id="Layer_1" data-name="Layer 1" xmlns="http://www.w3.org/2000/svg" viewBox="0 0 86.56 71.62"><defs><style>.cls-1{opacity:0.24;}.cls-2{fill:#fff;}</style></defs><title>Artboard 17</title><rect class="cls-1" x="0.57" y="4.47" width="85.07" height="65.19" rx="2.56" ry="2.56"/><rect x="0.57" y="4.11" width="85.42" height="65.31" rx="2.57" ry="2.57"/><rect class="cls-2" x="11.05" y="2.41" width="31.49" height="61.66" rx="2.18" ry="2.18"/><rect class="cls-2" x="45.33" y="2.41" width="31.49" height="60.99" rx="2.17" ry="2.17"/><rect x="40.68" y="1.75" width="6.52" height="62.77" rx="1" ry="1"/><path d="M16,2.41V18c0,.26.41.4.65.21l3.47-2.61"/><path d="M24.5,2.41V18c0,.26-.41.4-.65.21L20.38,15.6"/><rect x="16.04" y="2.41" width="8.47" height="13.19"/><path d="M52,55.46,67,71.82c2.39,2.61,6.27-1.28,3.89-3.89L55.92,51.58C53.53,49,49.65,52.86,52,55.46Z"/><ellipse cx="42.79" cy="39.66" rx="17.26" ry="16.77"/></svg>