<svg id="Layer_1" data-name="Layer 1" xmlns="http://www.w3.org/2000/svg" viewBox="0 0 558.94 144.26"><defs><style>.cls-1{font-size:133.55px;fill:#232323;font-family:VAGRoundedLightSSiLight, VAG Rounded Light SSi;letter-spacing:0.04em;}.cls-2{fill:#6dc5a8;}.cls-3{fill:none;stroke:#fff;stroke-miterlimit:10;stroke-width:7px;}.cls-4{fill:#fff;}</style></defs><title>Ductu colorido</title><text class="cls-1" transform="translate(181.59 115.18) scale(1.08 1)">Ductu</text><path class="cls-2" d="M192.82,77.37c3.6-2.21,3.6-5.82,0-8L121.45,33.65a13.77,13.77,0,0,0-13.1,0L37,69.34c-3.6,2.21-3.6,5.82,0,8l71.37,43.78a13.77,13.77,0,0,0,13.1,0" transform="translate(-34.28 -25.67)"/><path class="cls-2" d="M125.25,129a21,21,0,0,1-20.7,0L57.7,100.23s-4.23-2.59-4.23,3.28v28.7c0,15.11,27.5,31.41,61.43,31.41s61.43-16.3,61.43-31.41V101.89c0-4.71-3-2.41-3-2.41Z" transform="translate(-34.28 -25.67)"/><ellipse class="cls-3" cx="115.31" cy="82.89" rx="29.65" ry="28.93" transform="translate(-3.43 171.38) rotate(-89.22)"/><line class="cls-3" x1="99.88" y1="79.68" x2="124.8" y2="118.81"/><path class="cls-4" d="M158.89,144.4a1,1,0,0,0,0-2,1,1,0,0,0,0,2Z" transform="translate(-34.28 -25.67)"/><path class="cls-4" d="M101.66,81.61c-.22-4.58,1.91-9,6.7-9.89,3.16-.61,1.82-5.43-1.33-4.82-6.87,1.33-10.68,8-10.37,14.71.15,3.21,5.15,3.22,5,0Z" transform="translate(-34.28 -25.67)"/></svg>