<svg id="Layer_1" data-name="Layer 1" xmlns="http://www.w3.org/2000/svg" viewBox="0 0 86.56 71.62"><defs><style>.cls-1,.cls-2{fill:#fff;}.cls-1,.cls-2,.cls-3,.cls-4{stroke:#000;}.cls-1,.cls-4{stroke-linecap:round;}.cls-1,.cls-2,.cls-3{stroke-miterlimit:10;}.cls-1{stroke-width:2.65px;}.cls-2,.cls-3,.cls-4{stroke-width:1.88px;}.cls-3,.cls-4{fill:none;}.cls-4{stroke-linejoin:round;}</style></defs><title>Artboard 27</title><rect class="cls-1" x="15.35" y="2.65" width="47.33" height="54.68" rx="1.75" ry="1.75"/><rect class="cls-1" x="20.13" y="8.45" width="47.33" height="54.68" rx="1.75" ry="1.75"/><rect class="cls-1" x="26.37" y="13.94" width="47.33" height="54.68" rx="1.75" ry="1.75"/><line class="cls-1" x1="36.09" y1="23.53" x2="62.69" y2="23.53"/><line class="cls-1" x1="36.09" y1="34.55" x2="62.69" y2="34.55"/><line class="cls-1" x1="36.09" y1="45.56" x2="62.69" y2="45.56"/><line class="cls-1" x1="36.09" y1="56.57" x2="62.69" y2="56.57"/><path class="cls-2" d="M84.68,42.38l-3.39-4.67a1,1,0,0,0-1.37-.22L63.22,50.07,62,51a.74.74,0,0,0-.14.22l-1.37,2.91-1.27,2.7a1,1,0,0,0,1.13,1.46l2.93-.54,3.16-.58a1.13,1.13,0,0,0,.58-.31,3,3,0,0,0,.77-.5L84.47,43.74A1,1,0,0,0,84.68,42.38Z"/><line class="cls-3" x1="62.04" y1="50.95" x2="67.21" y2="56.74"/><path class="cls-4" d="M79.92,37.49c1.1-.92,2.46-1.77,3.55-2.69,1.7,2,3.08,3.86,4.78,5.84-1.27.87-2.21,1.84-3.47,2.71"/></svg>